<svg width="40" height="33" viewBox="0 0 40 33" fill="none" xmlns="http://www.w3.org/2000/svg">
<path d="M39.674 8.91145C39.5593 8.77575 39.4072 8.665 39.2305 8.58851C39.0538 8.51202 38.8576 8.47204 38.6584 8.47193H12.1297L10.1216 2.7011C9.33406 0.428708 7.46277 0.183395 6.69527 0.183395H1.3409C0.654609 0.183395 0.0996094 0.646416 0.0996094 1.21777C0.0996094 1.78912 0.655234 2.25211 1.34086 2.25211H6.69461C6.86398 2.25211 7.38086 2.25211 7.73339 3.26722L14.6415 24.424C14.7915 24.8703 15.2796 25.1786 15.8365 25.1786H32.7102C33.234 25.1786 33.7015 24.9052 33.8784 24.4943L39.8259 9.85624C39.9627 9.53906 39.9059 9.18593 39.674 8.91145H39.674ZM31.8367 23.1105H16.7786L12.8274 10.5412H36.8936L31.8367 23.1105ZM29.3749 27.2751C27.6486 27.2751 26.2499 28.4407 26.2499 29.8792C26.2499 31.3178 27.6486 32.4834 29.3749 32.4834C31.1011 32.4834 32.4999 31.3178 32.4999 29.8792C32.4999 28.4407 31.1011 27.2751 29.3749 27.2751ZM18.1249 27.2751C16.3986 27.2751 14.9999 28.4407 14.9999 29.8792C14.9999 31.3178 16.3986 32.4834 18.1249 32.4834C19.8511 32.4834 21.2499 31.3178 21.2499 29.8792C21.2499 28.4407 19.8511 27.2751 18.1249 27.2751Z" fill="#42474C"/>
</svg>